<svg width="83" height="42" viewBox="0 0 83 42" fill="none" xmlns="http://www.w3.org/2000/svg">
<!-- <path d="M20.914 25.03C21.264 25.03 21.558 24.988 21.796 24.904C22.034 24.82 22.223 24.708 22.363 24.568C22.5077 24.428 22.6103 24.2647 22.671 24.078C22.7363 23.8913 22.769 23.693 22.769 23.483C22.769 23.2637 22.734 23.0677 22.664 22.895C22.594 22.7177 22.4843 22.5683 22.335 22.447C22.1857 22.321 21.992 22.2253 21.754 22.16C21.5207 22.0947 21.2383 22.062 20.907 22.062H19.01V25.03H20.914ZM19.01 17.834V20.76H20.508C21.152 20.76 21.6373 20.6433 21.964 20.41C22.2953 20.1767 22.461 19.8057 22.461 19.297C22.461 18.7697 22.3117 18.394 22.013 18.17C21.7143 17.946 21.2477 17.834 20.613 17.834H19.01ZM20.613 16.378C21.2757 16.378 21.8427 16.441 22.314 16.567C22.7853 16.693 23.1703 16.8727 23.469 17.106C23.7723 17.3393 23.994 17.6217 24.134 17.953C24.274 18.2843 24.344 18.6577 24.344 19.073C24.344 19.311 24.309 19.5397 24.239 19.759C24.169 19.9737 24.0593 20.1767 23.91 20.368C23.7653 20.5547 23.5787 20.725 23.35 20.879C23.126 21.033 22.8577 21.1637 22.545 21.271C23.9357 21.5837 24.631 22.335 24.631 23.525C24.631 23.9543 24.5493 24.351 24.386 24.715C24.2227 25.079 23.9847 25.394 23.672 25.66C23.3593 25.9213 22.9743 26.1267 22.517 26.276C22.0597 26.4253 21.537 26.5 20.949 26.5H17.127V16.378H20.613ZM35.9948 21.439C35.9948 22.181 35.8712 22.8693 35.6238 23.504C35.3812 24.134 35.0358 24.68 34.5878 25.142C34.1398 25.604 33.6008 25.9657 32.9708 26.227C32.3408 26.4837 31.6408 26.612 30.8708 26.612C30.1055 26.612 29.4078 26.4837 28.7778 26.227C28.1478 25.9657 27.6065 25.604 27.1538 25.142C26.7058 24.68 26.3582 24.134 26.1108 23.504C25.8635 22.8693 25.7398 22.181 25.7398 21.439C25.7398 20.697 25.8635 20.011 26.1108 19.381C26.3582 18.7463 26.7058 18.198 27.1538 17.736C27.6065 17.274 28.1478 16.9147 28.7778 16.658C29.4078 16.3967 30.1055 16.266 30.8708 16.266C31.3842 16.266 31.8672 16.3267 32.3198 16.448C32.7725 16.5647 33.1878 16.7327 33.5658 16.952C33.9438 17.1667 34.2822 17.4303 34.5808 17.743C34.8842 18.051 35.1408 18.3963 35.3508 18.779C35.5608 19.1617 35.7195 19.577 35.8268 20.025C35.9388 20.473 35.9948 20.9443 35.9948 21.439ZM34.0698 21.439C34.0698 20.8837 33.9952 20.3867 33.8458 19.948C33.6965 19.5047 33.4842 19.129 33.2088 18.821C32.9335 18.513 32.5975 18.2773 32.2008 18.114C31.8088 17.9507 31.3655 17.869 30.8708 17.869C30.3762 17.869 29.9305 17.9507 29.5338 18.114C29.1418 18.2773 28.8058 18.513 28.5258 18.821C28.2505 19.129 28.0382 19.5047 27.8888 19.948C27.7395 20.3867 27.6648 20.8837 27.6648 21.439C27.6648 21.9943 27.7395 22.4937 27.8888 22.937C28.0382 23.3757 28.2505 23.749 28.5258 24.057C28.8058 24.3603 29.1418 24.5937 29.5338 24.757C29.9305 24.9203 30.3762 25.002 30.8708 25.002C31.3655 25.002 31.8088 24.9203 32.2008 24.757C32.5975 24.5937 32.9335 24.3603 33.2088 24.057C33.4842 23.749 33.6965 23.3757 33.8458 22.937C33.9952 22.4937 34.0698 21.9943 34.0698 21.439ZM46.1815 16.378V26.5H44.2915V20.158C44.2915 19.92 44.2962 19.6703 44.3055 19.409C44.3195 19.1477 44.3475 18.87 44.3895 18.576C44.2962 18.8373 44.1935 19.08 44.0815 19.304C43.9742 19.5233 43.8692 19.717 43.7665 19.885L39.8955 25.919C39.8535 25.989 39.8022 26.059 39.7415 26.129C39.6855 26.199 39.6225 26.262 39.5525 26.318C39.4825 26.3693 39.4055 26.4137 39.3215 26.451C39.2375 26.4837 39.1512 26.5 39.0625 26.5H37.6485V16.378H39.5385V22.72C39.5385 22.958 39.5315 23.21 39.5175 23.476C39.5082 23.7373 39.4825 24.015 39.4405 24.309C39.5338 24.0477 39.6342 23.805 39.7415 23.581C39.8535 23.357 39.9632 23.161 40.0705 22.993L43.9345 16.959C43.9765 16.889 44.0255 16.819 44.0815 16.749C44.1422 16.679 44.2075 16.6183 44.2775 16.567C44.3475 16.511 44.4222 16.4667 44.5015 16.434C44.5855 16.3967 44.6742 16.378 44.7675 16.378H46.1815ZM42.0025 14.915C42.1752 14.915 42.3198 14.8987 42.4365 14.866C42.5532 14.8333 42.6465 14.7773 42.7165 14.698C42.7865 14.614 42.8355 14.502 42.8635 14.362C42.8915 14.222 42.9055 14.0447 42.9055 13.83H43.9275C44.0488 13.83 44.1375 13.8813 44.1935 13.984C44.2542 14.0867 44.2845 14.1987 44.2845 14.32C44.2845 14.558 44.2308 14.768 44.1235 14.95C44.0162 15.132 43.8622 15.2837 43.6615 15.405C43.4608 15.5263 43.2205 15.6197 42.9405 15.685C42.6605 15.7457 42.3478 15.776 42.0025 15.776C41.6572 15.776 41.3445 15.7457 41.0645 15.685C40.7845 15.6197 40.5442 15.5263 40.3435 15.405C40.1428 15.2837 39.9888 15.132 39.8815 14.95C39.7742 14.768 39.7205 14.558 39.7205 14.32C39.7205 14.1987 39.7485 14.0867 39.8045 13.984C39.8652 13.8813 39.9562 13.83 40.0775 13.83H41.0995C41.0995 14.0447 41.1135 14.222 41.1415 14.362C41.1695 14.502 41.2185 14.614 41.2885 14.698C41.3585 14.7773 41.4495 14.8333 41.5615 14.866C41.6782 14.8987 41.8252 14.915 42.0025 14.915ZM55.5056 17.925H52.4536V26.5H50.5706V17.925H47.5186V16.378H55.5056V17.925ZM65.3631 16.378V26.5H63.4731V20.158C63.4731 19.92 63.4778 19.6703 63.4871 19.409C63.5011 19.1477 63.5291 18.87 63.5711 18.576C63.4778 18.8373 63.3751 19.08 63.2631 19.304C63.1558 19.5233 63.0508 19.717 62.9481 19.885L59.0771 25.919C59.0351 25.989 58.9838 26.059 58.9231 26.129C58.8671 26.199 58.8041 26.262 58.7341 26.318C58.6641 26.3693 58.5871 26.4137 58.5031 26.451C58.4191 26.4837 58.3328 26.5 58.2441 26.5H56.8301V16.378H58.7201V22.72C58.7201 22.958 58.7131 23.21 58.6991 23.476C58.6898 23.7373 58.6641 24.015 58.6221 24.309C58.7155 24.0477 58.8158 23.805 58.9231 23.581C59.0351 23.357 59.1448 23.161 59.2521 22.993L63.1161 16.959C63.1581 16.889 63.2071 16.819 63.2631 16.749C63.3238 16.679 63.3891 16.6183 63.4591 16.567C63.5291 16.511 63.6038 16.4667 63.6831 16.434C63.7671 16.3967 63.8558 16.378 63.9491 16.378H65.3631Z" fill="white"/> -->
<rect x="0.5" y="1" width="82" height="40" rx="7.5" stroke="url(#paint0_linear)"/>
<defs>
  <linearGradient id="paint0_linear" x1="72.4937" y1="-5.64999" x2="-33.0597" y2="65.418" gradientUnits="userSpaceOnUse">
    <stop stop-color="#FF4AF7"/>
    <stop offset="1" stop-color="#00CCFF"/>
  </linearGradient>
</defs>
</svg>
